<svg id="visual" viewBox="0 0 900 600" width="900" height="600" xmlns="http://www.w3.org/2000/svg" xmlns:xlink="http://www.w3.org/1999/xlink" version="1.1"><rect x="0" y="0" width="900" height="600" fill="#f7f7f7"></rect><path d="M0 426L21.5 414.5C43 403 86 380 128.8 374.2C171.7 368.3 214.3 379.7 257.2 388.7C300 397.7 343 404.3 385.8 410.5C428.7 416.7 471.3 422.3 514.2 412.5C557 402.7 600 377.3 642.8 376C685.7 374.7 728.3 397.3 771.2 405.8C814 414.3 857 408.7 878.5 405.8L900 403L900 601L878.5 601C857 601 814 601 771.2 601C728.3 601 685.7 601 642.8 601C600 601 557 601 514.2 601C471.3 601 428.7 601 385.8 601C343 601 300 601 257.2 601C214.3 601 171.7 601 128.8 601C86 601 43 601 21.5 601L0 601Z" fill="#ffffff"></path><path d="M0 419L21.5 415.8C43 412.7 86 406.3 128.8 406.2C171.7 406 214.3 412 257.2 417.5C300 423 343 428 385.8 435.7C428.7 443.3 471.3 453.7 514.2 450.5C557 447.3 600 430.7 642.8 421.8C685.7 413 728.3 412 771.2 412.2C814 412.3 857 413.7 878.5 414.3L900 415L900 601L878.5 601C857 601 814 601 771.2 601C728.3 601 685.7 601 642.8 601C600 601 557 601 514.2 601C471.3 601 428.7 601 385.8 601C343 601 300 601 257.2 601C214.3 601 171.7 601 128.8 601C86 601 43 601 21.5 601L0 601Z" fill="#f2f2f2"></path><path d="M0 451L21.5 457.2C43 463.3 86 475.7 128.8 475.5C171.7 475.3 214.3 462.7 257.2 456.3C300 450 343 450 385.8 452.2C428.7 454.3 471.3 458.7 514.2 468.3C557 478 600 493 642.8 492.5C685.7 492 728.3 476 771.2 465.5C814 455 857 450 878.5 447.5L900 445L900 601L878.5 601C857 601 814 601 771.2 601C728.3 601 685.7 601 642.8 601C600 601 557 601 514.2 601C471.3 601 428.7 601 385.8 601C343 601 300 601 257.2 601C214.3 601 171.7 601 128.8 601C86 601 43 601 21.5 601L0 601Z" fill="#e5e5e5"></path><path d="M0 537L21.5 528.8C43 520.7 86 504.3 128.8 495C171.7 485.7 214.3 483.3 257.2 483C300 482.7 343 484.3 385.8 493.8C428.7 503.3 471.3 520.7 514.2 526.8C557 533 600 528 642.8 524.5C685.7 521 728.3 519 771.2 515.5C814 512 857 507 878.5 504.5L900 502L900 601L878.5 601C857 601 814 601 771.2 601C728.3 601 685.7 601 642.8 601C600 601 557 601 514.2 601C471.3 601 428.7 601 385.8 601C343 601 300 601 257.2 601C214.3 601 171.7 601 128.8 601C86 601 43 601 21.5 601L0 601Z" fill="#d8d8d8"></path><path d="M0 546L21.5 544C43 542 86 538 128.8 540C171.7 542 214.3 550 257.2 548.8C300 547.7 343 537.3 385.8 537C428.7 536.7 471.3 546.3 514.2 551.2C557 556 600 556 642.8 554.2C685.7 552.3 728.3 548.7 771.2 550.3C814 552 857 559 878.5 562.5L900 566L900 601L878.5 601C857 601 814 601 771.2 601C728.3 601 685.7 601 642.8 601C600 601 557 601 514.2 601C471.3 601 428.7 601 385.8 601C343 601 300 601 257.2 601C214.3 601 171.7 601 128.8 601C86 601 43 601 21.5 601L0 601Z" fill="#cccccc"></path></svg>